<svg version="1.2" xmlns="http://www.w3.org/2000/svg" viewBox="0 0 340 126" width="340" height="126"><style>.a{fill:#0487c4;stroke:#d3d5d7;stroke-width:0}</style><path fill-rule="evenodd" d="m144.6 5.7c-0.4 1.1-8.3 23.2-8.3 23.2-3.4 9.6-10.4 11-17.6 11h-11.4c-2.7 0-3.5 1.5-4.3 3.3-0.4 1.1-18.4 52.9-20.9 60.5-0.2 0.6-0.1 1 0.6 1h27.9c0.7 0 1.1-0.5 1.4-1.2 1.7-5.3 11.8-35.4 16.9-50.3 2.4-7.5 2.6-7.6 9-7.6h37.4c0.4 0 1.3-0.2 1.6-1 1.6-4.8 13.4-37.8 13.8-39 0.4-1.3 0.1-1.6-1.2-1.6h-42.6c-1.3 0-1.7 0.1-2.3 1.7m-37.4-1.7c-3.6-0.2-14-0.5-23.1 0.4-39.2 4.3-67.5 25.1-77.2 55-11.5 35.7 12.1 56.2 28.3 62 0.9 0.3 1.5 0.2 1.8-0.6 0.3-0.9 2.1-5.4 2.3-6.1 0.2-0.6-0.2-1.1-1.1-1.4-16.5-7-22.1-23.7-15.9-40.3 6.7-18.2 28.4-29.2 48.3-31.5 2.6-0.3 7.1-0.8 10.6-0.9 10-0.1 15.3-2.2 17.8-9.2 2.7-7.8 8.6-24.7 9-25.9 0.3-1.2 0-1.5-0.8-1.5z"/><path  d="m88 60.8h-18c-6.6 0-12.9 4.5-15.7 12.1-1.7 4.8-9.4 26.2-10.8 30.7-0.2 0.7 0.1 1.1 0.7 1.1h29.3c0.9 0 1.2-0.4 1.4-1 2-6.1 14.1-40.8 14.3-41.4 0.1-0.7-0.2-1.5-1.2-1.5z"/><path fill-rule="evenodd" class="a" d="m138.3 49h193.1c2.2 0 3.4 1.7 2.7 3.7l-16.2 48.6c-0.7 2-3 3.7-5.2 3.7h-193.1c-2.2 0-3.4-1.7-2.7-3.7l16.2-48.6c0.7-2 3-3.7 5.2-3.7zm3.5 9.4l-12.3 36.9h5.8l12.3-36.9zm45.3 35.2c1.2 1.4 3.1 1.7 5 0.9 1.8-0.8 3.3-2.5 4-4.7l10.5-31.4h-5.8l-9.8 29.3-25.8-27.5c-1.2-1.4-3-1.7-4.9-0.9-1.9 0.7-3.4 2.4-4.1 4.6l-10.5 31.4h5.8l9.8-29.2zm33.1-29.4h42.8l1.9-5.8h-48.6l-12.3 36.9h5.9l5.1-15.6h35.5l2-5.8h-35.5zm65.1-5.8c-5.9 0-12.3 4.8-14.2 10.7l-5.2 15.5c-2 5.9 1.2 10.7 7.1 10.7h27.2c5.9 0 12.3-4.8 14.3-10.7l5.2-15.5c1.9-5.9-1.3-10.7-7.2-10.7zm-10.4 31.1q-0.9 0-1.7-0.4-0.7-0.4-1.2-1.1-0.5-0.6-0.5-1.5-0.1-0.9 0.2-1.9l5.2-15.5q0.3-1 1-1.9 0.7-0.9 1.6-1.6 0.9-0.6 1.9-1 1-0.4 2-0.4h27.2q0.9 0 1.7 0.4 0.8 0.4 1.2 1 0.5 0.7 0.6 1.6 0 0.9-0.3 1.9l-5.2 15.5q-0.3 1-1 1.9-0.6 0.9-1.5 1.5-1 0.7-2 1.1-1 0.4-1.9 0.4z"/></svg>